<?xml version="1.0" encoding="utf-8"?>
<!-- Generator: Adobe Illustrator 21.0.2, SVG Export Plug-In . SVG Version: 6.00 Build 0)  -->
<svg version="1.1" xmlns="http://www.w3.org/2000/svg" xmlns:xlink="http://www.w3.org/1999/xlink" x="0px" y="0px"
	 viewBox="0 0 25 25" style="enable-background:new 0 0 25 25;" xml:space="preserve">
<style type="text/css">
	.st0{fill:#CC3300;}
</style>
<g id="Layer_1">
</g>
<g id="レイヤー_1">
	<path class="st0" d="M13.8,13.3c-6.3,7.3,5,9.8,11.2,10.8C5.5,27.8-2.6,19.8,0.9,0C2.2,7.8,5,16.9,11.5,11.2
		c1.5-1.3,3.1-2.9,4.7-4.5c1.2-1.3,2.8-3,1.8-5.1c-0.3-0.7-1.1-1-1.7-1.2C15.2,0.1,14,0,12.9,0c0,0,0.6,0,1,0H25c0,4,0,12.2,0,12.2
		c0-1.4-0.2-2.9-0.8-4.1c-0.3-0.6-0.8-1.2-1.5-1.4C21,6.2,19.2,7.9,18,9C16.6,10.4,15,11.9,13.8,13.3L13.8,13.3z"/>
</g>
</svg>
